<?xml version="1.0" encoding="UTF-8"?>
<svg version="1.1" xmlns="http://www.w3.org/2000/svg" width="499" height="499">
<path d="M0 0 C164.67 0 329.34 0 499 0 C499 164.67 499 329.34 499 499 C334.33 499 169.66 499 0 499 C0 334.33 0 169.66 0 0 Z " fill="#FEFEFE" transform="translate(0,0)"/>
<path d="M0 0 C18.49113569 -0.06986136 36.98222514 -0.12319383 55.47346497 -0.15543652 C64.06194592 -0.1708145 72.65034268 -0.19172724 81.23876953 -0.22631836 C88.73654622 -0.25650197 96.23426185 -0.2756406 103.73209763 -0.28226548 C107.69116542 -0.28612949 111.65005875 -0.29501324 115.60906982 -0.31719017 C150.12016779 -0.50284837 189.07626348 0.49748535 218 22 C218.845625 22.60328125 219.69125 23.2065625 220.5625 23.828125 C233.59101068 33.59950801 243.52485712 48.04097165 246.61328125 64.2109375 C249.14902428 89.05609652 245.66033497 112.04552017 229.68359375 131.875 C213.86572049 150.09402147 191.07584114 158.21361137 168 163 C168 166.78324524 168.89271368 167.30143517 171.4375 170 C174.50742651 173.33921831 177.45739261 176.72492156 180.3125 180.25 C183.66056253 184.37601165 187.05838899 188.45224025 190.5 192.5 C196.14880352 199.15014228 201.66823975 205.9012158 207.171875 212.671875 C211.69411815 218.22044283 216.27883279 223.70914795 220.91357422 229.16357422 C224.55836708 233.45972273 228.12772864 237.8135055 231.68359375 242.18359375 C234.74079901 245.90070166 237.860493 249.56294957 240.97998047 253.2277832 C243.75753305 256.50108358 246.46672642 259.81577328 249.125 263.1875 C267.03300965 285.70042641 284.43272334 293.75448885 312 300 C312 305.28 312 310.56 312 316 C301.70756841 316.24895428 291.41714924 316.45055857 281.12238312 316.56993389 C276.34151491 316.62724209 271.56282021 316.70490008 266.78320312 316.82983398 C262.16644621 316.94974957 257.55177294 317.01520264 252.93357849 317.04364967 C251.17589 317.06390769 249.41831027 317.10347334 247.66151428 317.16303062 C233.89211359 317.61107437 233.89211359 317.61107437 229.19894409 313.61499023 C227.15875658 310.8273815 225.56983426 308.07039458 224 305 C223.01583699 303.67453408 222.0045456 302.36784129 220.9453125 301.1015625 C220.48116943 300.52720459 220.01702637 299.95284668 219.53881836 299.36108398 C219.0722583 298.78817627 218.60569824 298.21526855 218.125 297.625 C214.34077026 292.93643087 210.59741528 288.22382493 206.9375 283.4375 C203.57228997 279.03781932 200.17819298 274.66331029 196.75 270.3125 C192.47892332 264.89125335 188.23362929 259.45053928 184 254 C179.84789628 248.65509177 175.68700304 243.3176181 171.5 238 C167.31299655 232.68238137 163.15218198 227.34484789 159 222 C153.90586543 215.44339813 148.79516673 208.90046564 143.65625 202.37890625 C141.81375668 200.03956848 139.98198543 197.69228147 138.15625 195.33984375 C135.46256537 191.87298039 132.74075771 188.42973271 130 185 C129.30132812 184.11957031 128.60265625 183.23914063 127.8828125 182.33203125 C119.47081249 172.24776617 109.73413703 168.27415092 96.91992188 167.11328125 C95.97697266 167.03464844 95.03402344 166.95601562 94.0625 166.875 C92.6074707 166.74544922 92.6074707 166.74544922 91.12304688 166.61328125 C88.74915989 166.40278881 86.37491294 166.19852115 84 166 C84.10801677 177.88395588 84.22074911 189.76785708 84.33933926 201.65171242 C84.39427316 207.17111007 84.4476424 212.69051322 84.49731445 218.20996094 C84.54539804 223.54627984 84.5977502 228.882542 84.65294075 234.21879196 C84.67316703 236.24469954 84.69190978 238.27062254 84.70907402 240.29655838 C83.64206143 266.03245285 83.64206143 266.03245285 93 289 C102.17631328 297.9141329 113.94305152 298.11093026 126 299 C127.15459717 299.08677002 127.15459717 299.08677002 128.33251953 299.17529297 C132.55401837 299.48625365 136.77379314 299.74893821 141 300 C141 305.28 141 310.56 141 316 C93.15 316 45.3 316 -4 316 C-4 310.72 -4 305.44 -4 300 C-1.55787109 299.74476563 -1.55787109 299.74476563 0.93359375 299.484375 C3.10164909 299.24035145 5.26961323 298.99551666 7.4375 298.75 C8.50677734 298.64042969 9.57605469 298.53085937 10.67773438 298.41796875 C19.92434421 297.34343917 28.52085588 295.0818552 35 288 C37.76133133 282.05251713 40.12183008 275.5933117 40.12863445 268.98056793 C40.13347112 267.78840093 40.13347112 267.78840093 40.1384055 266.57214975 C40.1368569 265.70485034 40.1353083 264.83755094 40.13371277 263.94396973 C40.1371111 262.55496845 40.1371111 262.55496845 40.14057809 261.13790655 C40.14692033 258.02747198 40.14608856 254.91708096 40.14526367 251.80664062 C40.14825514 249.5792434 40.15165764 247.3518467 40.15544128 245.12445068 C40.16428961 239.06622102 40.16661983 233.00800547 40.16725707 226.94976997 C40.1682062 221.89057055 40.17188478 216.83137442 40.17542917 211.77217627 C40.18311224 200.51233188 40.18609751 189.25249416 40.18542381 177.99264795 C40.18536388 176.9792169 40.18536388 176.9792169 40.18530273 175.9453125 C40.18524141 174.93063684 40.18524141 174.93063684 40.18517885 173.89546269 C40.18477301 162.94951313 40.19432644 152.00359808 40.2084411 141.05765849 C40.22283348 129.80706873 40.22952685 118.55649523 40.22884732 107.30589437 C40.22859273 100.9943039 40.23142229 94.68275242 40.24202538 88.37117004 C40.25173513 82.4286382 40.25176579 76.48618236 40.24450874 70.54364777 C40.24346628 68.36850625 40.24580561 66.19335994 40.2518692 64.01822662 C41.13341148 43.29560207 41.13341148 43.29560207 33 25 C26.73711778 18.8977045 18.9284996 18.42499092 10.625 17.375 C9.60277344 17.2409375 8.58054687 17.106875 7.52734375 16.96875 C5.0189155 16.64054443 2.50954536 16.31955162 0 16 C0 10.72 0 5.44 0 0 Z " fill="#2C4F9D" transform="translate(112,77)"/>
<path d="M0 0 C0.98147507 -0.00016617 1.96295013 -0.00033234 2.97416687 -0.00050354 C4.08995621 -0.00988449 5.20574554 -0.01926544 6.35534668 -0.02893066 C8.16926155 -0.0120797 8.16926155 -0.0120797 10.01982117 0.00511169 C11.89470467 0.00292885 11.89470467 0.00292885 13.8074646 0.0007019 C16.46189157 0.00236487 19.11489729 0.01188742 21.76908875 0.03465271 C24.46626218 0.05717827 27.16265713 0.06445543 29.85990906 0.05516052 C33.76760512 0.04242561 37.67464737 0.05136075 41.58232117 0.06761169 C42.76933121 0.06467606 43.95634125 0.06174042 45.17932129 0.05871582 C61.52965318 0.23898275 78.40495474 3.88089917 90.53153992 15.50120544 C104.80399145 31.40205749 105.19034143 51.25109311 104.53153992 71.50120544 C103.76391811 85.45125552 98.41078271 99.07258585 88.53935242 109.09495544 C82.78400767 113.69923124 76.29734623 116.66992377 69.53153992 119.50120544 C68.72974304 119.84796326 67.92794617 120.19472107 67.10185242 120.55198669 C59.65121432 123.37859064 51.37717938 124.29085409 43.53153992 125.50120544 C42.53450043 125.67123077 41.53746094 125.8412561 40.51020813 126.01643372 C35.89558733 126.670396 31.31302188 126.62607005 26.66044617 126.59886169 C25.27695229 126.59673927 25.27695229 126.59673927 23.86550903 126.59457397 C20.94165194 126.58901051 18.01787357 126.57646487 15.09403992 126.56370544 C13.10250457 126.55868572 11.11096801 126.55412364 9.11943054 126.55003357 C4.25677035 126.53905306 -0.60583155 126.52181383 -5.46846008 126.50120544 C-5.5385281 110.66348849 -5.59143738 94.82581335 -5.6238966 78.98797989 C-5.63936829 71.6342628 -5.66046349 64.28064199 -5.69477844 56.92698669 C-5.72467166 50.51785046 -5.74403289 44.10878396 -5.75072557 37.69957995 C-5.754638 34.30564159 -5.76383874 30.91190271 -5.78565025 27.51802826 C-5.80734805 23.73007251 -5.81043014 19.9425334 -5.80903625 16.15452576 C-5.81982208 15.02811676 -5.83060791 13.90170776 -5.84172058 12.74116516 C-5.83759659 11.70913971 -5.8334726 10.67711426 -5.82922363 9.61381531 C-5.83198901 8.71783253 -5.83475439 7.82184975 -5.83760357 6.89871597 C-5.24976726 3.08084081 -3.85664949 0.78306866 0 0 Z " fill="#FDFDFE" transform="translate(201.4684600830078,96.49879455566406)"/>
</svg>
