<?xml version="1.0" encoding="UTF-8"?>
<svg version="1.1" xmlns="http://www.w3.org/2000/svg" width="500" height="500">
<path d="M0 0 C165 0 330 0 500 0 C500 165 500 330 500 500 C335 500 170 500 0 500 C0 335 0 170 0 0 Z " fill="#020029" transform="translate(0,0)"/>
<path d="M0 0 C158.8495935 0 158.8495935 0 184 23 C184.63164062 23.55171875 185.26328125 24.1034375 185.9140625 24.671875 C199.05824388 36.83169037 206.04655238 55.44651966 207.19970703 73.04833984 C208.08381103 97.39264285 205.33752528 117.60672661 188.875 136.4296875 C178.06407283 147.89699239 163.29255087 155.56820709 148 159 C148.11675622 161.419179 148.11675622 161.419179 149 164 C151.17535575 165.59356893 151.17535575 165.59356893 153.9375 166.75 C174.8834055 177.35896512 184.22405538 200.42671282 191.26074219 221.59350586 C192.02811604 223.96556762 192.78992086 226.33943641 193.546875 228.71484375 C193.96616606 230.01840593 194.3858747 231.32183386 194.80596924 232.62513733 C195.68301393 235.34960543 196.55675188 238.0751016 197.42773438 240.80151367 C198.51332505 244.19966262 199.6044593 247.59599429 200.69779205 250.99165916 C203.27000919 258.98113415 205.82151782 266.9770536 208.35842896 274.97780609 C209.01325511 277.04177931 209.66954824 279.10528251 210.32592773 281.16876221 C211.40179719 284.55390142 212.47092948 287.94110349 213.53513336 291.32992744 C214.12696716 293.21050781 214.72415728 295.08939983 215.32147217 296.96824646 C215.67461487 298.09835648 216.02775757 299.22846649 216.39160156 300.39282227 C216.7034137 301.38274673 217.01522583 302.3726712 217.33648682 303.39259338 C218 306 218 306 218 310 C205.79 310 193.58 310 181 310 C178.78955665 303.39653269 176.58077121 296.79252797 174.375 290.1875 C173.87312668 288.68479553 173.87312668 288.68479553 173.3611145 287.1517334 C167.73546463 270.29739694 162.19918216 253.41542811 156.74560547 236.50463867 C150.56557777 216.11020275 150.56557777 216.11020275 141.875 196.75 C141.39353516 195.85474609 141.39353516 195.85474609 140.90234375 194.94140625 C134.9825579 184.17167537 125.75400449 177.44457631 114 174 C88.48605208 168.89721042 62.01641062 171.38259427 36 171 C36 216.87 36 262.74 36 310 C24.12 310 12.24 310 0 310 C0 207.7 0 105.4 0 0 Z " fill="#FEFEFE" transform="translate(150,99)"/>
<path d="M0 0 C20.0784375 -0.061875 20.0784375 -0.061875 40.5625 -0.125 C46.8574353 -0.15231201 46.8574353 -0.15231201 53.27954102 -0.18017578 C58.48034668 -0.18920898 58.48034668 -0.18920898 60.92979431 -0.19088745 C62.60831265 -0.19392019 64.28682717 -0.20087241 65.96531677 -0.21115112 C85.10189776 -0.32228486 105.35376649 -0.18674383 120 14 C132.64447502 27.05401267 133.52077443 43.5181241 133.27734375 60.6875 C132.80476334 73.85391941 128.47133652 87.16801991 118.75 96.375 C106.02187734 106.76573786 90.35071571 109.19073975 74.35913086 109.11352539 C73.53533463 109.11364593 72.71153841 109.11376646 71.86277866 109.11389065 C69.23010497 109.11315192 66.59750456 109.10557176 63.96484375 109.09765625 C62.32588739 109.0961836 60.68693056 109.09516488 59.04797363 109.09460449 C53.01114186 109.08938903 46.97432019 109.07542779 40.9375 109.0625 C27.428125 109.041875 13.91875 109.02125 0 109 C0 73.03 0 37.06 0 0 Z " fill="#02002A" transform="translate(186,130)"/>
</svg>
