<?xml version="1.0" encoding="UTF-8"?>
<svg version="1.1" xmlns="http://www.w3.org/2000/svg" width="498" height="498">
<path d="M0 0 C0.90332062 -0.00701431 1.80664124 -0.01402863 2.73733521 -0.02125549 C5.63223319 -0.03864633 8.52692671 -0.04510661 11.421875 -0.046875 C12.41052551 -0.04754974 13.39917603 -0.04822449 14.41778564 -0.04891968 C28.55955999 -0.03356035 42.28163642 0.32563678 56.171875 3.203125 C57.02088379 3.36409668 57.86989258 3.52506836 58.74462891 3.69091797 C95.10453984 10.62454451 129.29378151 25.44114666 159.171875 47.203125 C159.74776367 47.62062012 160.32365234 48.03811523 160.91699219 48.46826172 C169.56709028 54.78910151 177.46232044 61.77451184 185.171875 69.203125 C185.78353516 69.78755371 186.39519531 70.37198242 187.02539062 70.97412109 C195.90382635 79.49206875 203.88332641 88.29293724 211.171875 98.203125 C211.81116943 99.05922363 211.81116943 99.05922363 212.46337891 99.93261719 C218.97695073 108.67159777 224.79777489 117.72302383 230.171875 127.203125 C230.73455078 128.19070801 230.73455078 128.19070801 231.30859375 129.19824219 C249.5317875 161.49310005 261.18055454 199.8291345 261.375 237.03125 C261.38201431 237.93457062 261.38902863 238.83789124 261.39625549 239.76858521 C261.41364633 242.66348319 261.42010661 245.55817671 261.421875 248.453125 C261.42254974 249.44177551 261.42322449 250.43042603 261.42391968 251.44903564 C261.40856035 265.59080999 261.04936322 279.31288642 258.171875 293.203125 C258.01090332 294.05213379 257.84993164 294.90114258 257.68408203 295.77587891 C250.75045549 332.13578984 235.93385334 366.32503151 214.171875 396.203125 C213.75437988 396.77901367 213.33688477 397.35490234 212.90673828 397.94824219 C206.58589849 406.59834028 199.60048816 414.49357044 192.171875 422.203125 C191.29523193 423.12061523 191.29523193 423.12061523 190.40087891 424.05664062 C181.88293125 432.93507635 173.08206276 440.91457641 163.171875 448.203125 C162.31577637 448.84241943 162.31577637 448.84241943 161.44238281 449.49462891 C152.70340223 456.00820073 143.65197617 461.82902489 134.171875 467.203125 C133.18429199 467.76580078 133.18429199 467.76580078 132.17675781 468.33984375 C99.88189995 486.5630375 61.5458655 498.21180454 24.34375 498.40625 C23.44042938 498.41326431 22.53710876 498.42027863 21.60641479 498.42750549 C18.71151681 498.44489633 15.81682329 498.45135661 12.921875 498.453125 C11.43889923 498.45413712 11.43889923 498.45413712 9.92596436 498.45516968 C-4.21580999 498.43981035 -17.93788642 498.08061322 -31.828125 495.203125 C-32.67713379 495.04215332 -33.52614258 494.88118164 -34.40087891 494.71533203 C-70.76078984 487.78170549 -104.95003151 472.96510334 -134.828125 451.203125 C-135.69195801 450.57688232 -135.69195801 450.57688232 -136.57324219 449.93798828 C-145.22334028 443.61714849 -153.11857044 436.63173816 -160.828125 429.203125 C-161.43978516 428.61869629 -162.05144531 428.03426758 -162.68164062 427.43212891 C-171.56007635 418.91418125 -179.53957641 410.11331276 -186.828125 400.203125 C-187.25432129 399.63239258 -187.68051758 399.06166016 -188.11962891 398.47363281 C-194.63320073 389.73465223 -200.45402489 380.68322617 -205.828125 371.203125 C-206.20324219 370.54473633 -206.57835937 369.88634766 -206.96484375 369.20800781 C-225.1880375 336.91314995 -236.83680454 298.5771155 -237.03125 261.375 C-237.03826431 260.47167938 -237.04527863 259.56835876 -237.05250549 258.63766479 C-237.06989633 255.74276681 -237.07635661 252.84807329 -237.078125 249.953125 C-237.07879974 248.96447449 -237.07947449 247.97582397 -237.08016968 246.95721436 C-237.06481035 232.81544001 -236.70561322 219.09336358 -233.828125 205.203125 C-233.66715332 204.35411621 -233.50618164 203.50510742 -233.34033203 202.63037109 C-226.40670549 166.27046016 -211.59010334 132.08121849 -189.828125 102.203125 C-189.41062988 101.62723633 -188.99313477 101.05134766 -188.56298828 100.45800781 C-182.24214849 91.80790972 -175.25673816 83.91267956 -167.828125 76.203125 C-166.95148193 75.28563477 -166.95148193 75.28563477 -166.05712891 74.34960938 C-157.53918125 65.47117365 -148.73831276 57.49167359 -138.828125 50.203125 C-138.25739258 49.77692871 -137.68666016 49.35073242 -137.09863281 48.91162109 C-128.35965223 42.39804927 -119.30822617 36.57722511 -109.828125 31.203125 C-109.16973633 30.82800781 -108.51134766 30.45289062 -107.83300781 30.06640625 C-75.53814995 11.8432125 -37.2021155 0.19444546 0 0 Z " fill="#020029" transform="translate(236.828125,-0.203125)"/>
<path d="M0 0 C19.99445059 -0.04649284 39.98888568 -0.08208838 59.98337936 -0.10362434 C69.26921185 -0.113894 78.55500993 -0.12787086 87.84082031 -0.15087891 C95.94357683 -0.17094589 104.04630841 -0.18374767 112.1490891 -0.18817699 C116.43103583 -0.19076207 120.71291125 -0.19674578 124.9948349 -0.21146011 C168.03672871 -0.35361397 168.03672871 -0.35361397 186.75 4 C187.64066162 4.20657227 188.53132324 4.41314453 189.44897461 4.62597656 C205.80700305 8.70944933 221.85851961 15.31750828 235 26 C235.73734375 26.55945313 236.4746875 27.11890625 237.234375 27.6953125 C250.36464828 38.23006664 258.2282373 53.64704966 261 70 C261.38568429 74.65623122 261.43057732 79.26739925 261.375 83.9375 C261.36557373 85.16734619 261.35614746 86.39719238 261.34643555 87.66430664 C261.20512151 96.14934195 260.66346676 103.89146209 258 112 C257.6596875 113.08667969 257.319375 114.17335938 256.96875 115.29296875 C249.80435171 135.93902194 234.8005473 150.44644059 215.6027832 160.00708008 C203.80916011 165.63021153 188.3609735 172.86199829 175 172 C179.40107116 177.58645995 183.88942671 183.08599059 188.5 188.5 C191.72636433 192.28895507 194.90927047 196.09858731 198 200 C201.52883403 204.45253701 205.18229329 208.78685979 208.86328125 213.11328125 C211.78004513 216.54571609 214.65693426 220.00592815 217.5 223.5 C220.78823483 227.53983137 224.12721426 231.53092065 227.5 235.5 C231.62101634 240.34959381 235.66991354 245.25160806 239.6875 250.1875 C242.26146545 253.31799851 244.87576903 256.41165634 247.5 259.5 C253.19715063 266.20752164 258.76479193 273.01610357 264.3125 279.84765625 C265.8344364 281.71665585 267.36165148 283.58137142 268.89453125 285.44140625 C270.17711363 287.00001749 271.4484753 288.56806871 272.69921875 290.15234375 C284.93069788 305.10851072 301.63167431 311.09912897 319.76806641 315.46289062 C323.18462789 316.28507781 326.591529 317.14496737 330 318 C330 323.28 330 328.56 330 334 C319.09022365 334.29443504 308.18311014 334.53259522 297.27025032 334.67355824 C292.20209595 334.74123665 287.13681361 334.8329122 282.0703125 334.98071289 C277.1746724 335.12262517 272.28178194 335.19982206 267.38424301 335.23340416 C265.52203959 335.25731235 263.65997669 335.30400834 261.79895401 335.37449074 C247.60017492 335.89054526 247.60017492 335.89054526 243.24172974 332.72159004 C239.76154483 329.24602228 237.40222571 325.26089051 235 321 C234.06638766 319.74411411 233.10895475 318.50482514 232.109375 317.30078125 C227.110667 310.96963618 222.13803412 304.61888784 217.1875 298.25 C216.600896 297.49533447 216.01429199 296.74066895 215.40991211 295.96313477 C213.00234764 292.86507176 210.59542548 289.76651 208.18847656 286.66796875 C201.87295777 278.538745 195.55106865 270.41518487 189.18286133 262.32714844 C184.82929401 256.79331593 180.51096976 251.23226345 176.19140625 245.671875 C172.20804161 240.54667061 168.20642484 235.43637764 164.19018555 230.33691406 C160.99619243 226.27767422 157.822544 222.20297792 154.6550293 218.12304688 C135.66032362 190.85294398 135.66032362 190.85294398 107 177 C103.87757529 176.75300275 100.75331932 176.58967502 97.625 176.4375 C96.79355469 176.39431641 95.96210938 176.35113281 95.10546875 176.30664062 C93.07046772 176.20138195 91.03525297 176.10026928 89 176 C89.08459445 189.74391102 89.17955139 203.48770839 89.28752708 217.23145676 C89.33735011 223.61408082 89.38368096 229.99668945 89.421875 236.37939453 C89.45890506 242.54567876 89.50531214 248.71182928 89.55806351 254.87799835 C89.57651364 257.22373343 89.59165572 259.56949706 89.60334396 261.91527557 C89.62036788 265.21546453 89.64944025 268.51535346 89.68115234 271.81542969 C89.68331253 272.7728154 89.68547272 273.73020111 89.68769836 274.71659851 C89.83006126 286.40827206 91.64906826 296.63688474 97.625 306.75 C108.52644634 317.077686 125.44827959 316.93082909 139.5625 317.5625 C140.47580078 317.60568359 141.38910156 317.64886719 142.33007812 317.69335938 C144.553267 317.79811697 146.77661805 317.89942353 149 318 C149 323.61 149 329.22 149 335 C98.18 335 47.36 335 -5 335 C-5 329.39 -5 323.78 -5 318 C-3.60007812 317.89042969 -2.20015625 317.78085937 -0.7578125 317.66796875 C1.119839 317.50836837 2.99744063 317.34818062 4.875 317.1875 C5.7928125 317.11724609 6.710625 317.04699219 7.65625 316.97460938 C17.63600603 316.09610972 27.48674317 314.05295849 35 307 C41.33999125 298.04669528 42.30551737 287.40591729 42.26069641 276.73564148 C42.26452196 275.75213347 42.26834751 274.76862546 42.27228898 273.75531417 C42.28254149 270.48615315 42.27864161 267.21717032 42.2746582 263.94799805 C42.27900898 261.59326008 42.28419335 259.23852353 42.29014587 256.88378906 C42.30350818 250.50559658 42.30411758 244.12746346 42.30158257 237.74925971 C42.30037514 231.74081871 42.3065972 225.73238594 42.31201603 219.72394822 C42.3228751 207.09489807 42.32073694 194.46587467 42.31463119 181.83682302 C42.30946454 170.3066909 42.3207137 158.77664333 42.33972941 147.24652793 C42.35914503 135.3821404 42.36735722 123.51779279 42.36360615 111.65338928 C42.36169961 105.0025881 42.36439583 98.35184843 42.37832069 91.70105553 C42.39093146 85.44405127 42.38892409 79.18721571 42.37590981 72.93021393 C42.3735515 70.64099634 42.37625178 68.35176676 42.38453293 66.06256294 C43.16475938 45.33235026 43.16475938 45.33235026 35 27 C34.401875 26.278125 33.80375 25.55625 33.1875 24.8125 C26.88332116 19.58903753 19.4198445 19.16584958 11.5625 18.3125 C9.8928418 18.11817383 9.8928418 18.11817383 8.18945312 17.91992188 C5.46072668 17.60371752 2.73049539 17.30054633 0 17 C0 11.39 0 5.78 0 0 Z " fill="#FDFDFD" transform="translate(102,77)"/>
<path d="M0 0 C1.46917625 -0.01407143 1.46917625 -0.01407143 2.96803284 -0.02842712 C4.02522018 -0.01719315 5.08240753 -0.00595917 6.17163086 0.00561523 C7.82683998 0.00343239 7.82683998 0.00343239 9.51548767 0.00120544 C11.85996121 0.00286685 14.20444539 0.01445494 16.54882812 0.03515625 C20.07137749 0.06368183 23.59237928 0.05585481 27.11499023 0.04272461 C50.25238266 0.06493303 74.92407763 1.10142847 92.82397461 17.62670898 C107.4673523 33.07210913 107.54277482 54.74459324 107.15405273 74.71362305 C106.73574974 89.27770915 101.73423774 105.05855916 91.07397461 115.50170898 C68.70454647 134.84492564 39.09006552 134.68975916 11.19897461 134.56420898 C9.23934034 134.55918095 7.27970482 134.55462037 5.32006836 134.55053711 C0.57133876 134.53964165 -4.17732901 134.52244983 -8.92602539 134.50170898 C-9.01944051 117.62093622 -9.08999063 100.74024405 -9.13327408 83.859272 C-9.15390496 76.02124647 -9.18203542 68.18338148 -9.2277832 60.34545898 C-9.2676351 53.51442062 -9.29345438 46.68349851 -9.30237937 39.85234714 C-9.30759699 36.23478477 -9.31987063 32.61755501 -9.34894562 29.00009918 C-9.38113026 24.96305039 -9.38198588 20.92658092 -9.38012695 16.8894043 C-9.39450806 15.68818939 -9.40888916 14.48697449 -9.42370605 13.24935913 C-9.41545807 11.6003511 -9.41545807 11.6003511 -9.40704346 9.91802979 C-9.41073063 8.96305225 -9.4144178 8.00807472 -9.41821671 7.02415848 C-8.3972552 1.79179506 -5.01859044 0.00097242 0 0 Z " fill="#02002A" transform="translate(199.926025390625,96.498291015625)"/>
</svg>
