<?xml version="1.0" encoding="UTF-8"?>
<svg version="1.1" xmlns="http://www.w3.org/2000/svg" width="500" height="500">
<path d="M0 0 C165 0 330 0 500 0 C500 165 500 330 500 500 C335 500 170 500 0 500 C0 335 0 170 0 0 Z " fill="#060057" transform="translate(0,0)"/>
<path d="M0 0 C133.22617124 0 133.22617124 0 153 18 C166.11966186 31.71004664 170.50017785 48.23823213 170.21875 66.859375 C169.67891244 81.44848494 164.32398977 94.55487108 154.12109375 104.90625 C147.23373202 111.25097111 135.80190515 120 126 120 C126.15090031 121.9196802 126.15090031 121.9196802 127 124 C129.06503339 125.5460234 129.06503339 125.5460234 131.625 126.8125 C143.92483079 133.86346985 149.62519477 144.89709665 154.50390625 157.79296875 C154.84156006 158.68325272 155.17921387 159.57353668 155.52709961 160.49079895 C160.63721457 174.1698624 165.15590307 188.0612205 169.74768066 201.92047119 C170.76438121 204.98418273 171.78677665 208.04598164 172.80916595 211.10779858 C173.79625775 214.06574583 174.78037147 217.02467674 175.76350403 219.98394203 C176.23159523 221.39205783 176.70049076 222.79990652 177.17021179 224.20747948 C177.81891493 226.15321992 178.46372433 228.10020624 179.10742188 230.04760742 C179.47411987 231.15230881 179.84081787 232.25701019 180.21862793 233.39518738 C181 236 181 236 181 238 C164.83 238 148.66 238 132 238 C128.86562117 228.59686352 125.87039019 219.60587682 123.18139648 210.1574707 C120.44737016 200.79268599 117.13480892 191.60266077 113.92114258 182.39404297 C113.45497978 181.05575498 112.98907281 179.71737786 112.5234375 178.37890625 C112.18628975 177.4109613 112.18628975 177.4109613 111.84233093 176.42346191 C110.57903759 172.7683155 109.4105369 169.10142609 108.3359375 165.38671875 C105.80819701 156.75521259 101.73378824 148.93681907 94 144 C79.94396637 136.38506101 61.76042369 139.42172639 47 139 C47 171.67 47 204.34 47 238 C31.49 238 15.98 238 0 238 C0 159.46 0 80.92 0 0 Z " fill="#FDFDFE" transform="translate(170,141)"/>
<path d="M0 0 C12.313125 -0.0928125 12.313125 -0.0928125 24.875 -0.1875 C28.73227783 -0.22846802 28.73227783 -0.22846802 32.66748047 -0.27026367 C34.73404472 -0.2790357 36.80061421 -0.28667794 38.8671875 -0.29296875 C39.91720947 -0.30831665 40.96723145 -0.32366455 42.04907227 -0.33947754 C52.11207306 -0.34300512 61.0522974 1.40302188 68.58984375 8.49609375 C75.0394235 15.32413295 76.55314593 23.28095355 76.4375 32.4375 C76.43137695 33.26717285 76.42525391 34.0968457 76.41894531 34.95166016 C76.20370742 43.39395245 74.232401 50.9456676 68 57 C58.94262886 63.15901238 49.63915918 64.45041988 38.8671875 64.29296875 C37.37844116 64.28843689 37.37844116 64.28843689 35.85961914 64.28381348 C32.19797167 64.26827073 28.53647395 64.22638839 24.875 64.1875 C16.66625 64.125625 8.4575 64.06375 0 64 C0 42.88 0 21.76 0 0 Z " fill="#07007E" transform="translate(217,178)"/>
</svg>
